# Blender v2.92.0 OBJ File: 'Rough_Idea_att14_-_Texture_Painting.blend'
# www.blender.org
mtllib LongshotGeodeCrystalMesh.mtl
o LongshotGeodeCrystalMesh_Longshot_Geode_Crystal
v -0.235880 0.914120 -0.020412
v -0.235880 0.914120 0.020413
v -0.560566 0.589434 0.479588
v -0.589434 0.560566 0.479588
v -0.589434 0.560566 -0.479588
v -0.560566 0.589434 -0.479588
v -0.914120 0.885252 0.020412
v -0.885252 0.914120 0.020412
v -0.885252 0.914120 -0.020412
v -0.914120 0.885252 -0.020412
v -0.914120 0.235880 0.020413
v -0.914120 0.235880 -0.020412
v 1.083593 0.008165 0.437647
v 1.077475 0.008165 0.452788
v 1.077475 -0.008165 0.452788
v 1.083593 -0.008165 0.437647
v 0.860820 0.241835 0.365253
v 0.866938 0.241835 0.350113
v 0.773286 -0.008165 0.581909
v 0.773286 0.008165 0.581909
v 0.954472 0.008165 0.133457
v 0.954472 -0.008165 0.133457
v 0.866938 -0.241835 0.350113
v 0.860820 -0.241835 0.365253
v 0.850283 -0.420018 0.560716
v 0.843453 -0.419985 0.570882
v 0.839632 -0.431343 0.568351
v 0.846462 -0.431376 0.558185
v 0.780474 -0.240693 0.527995
v 0.787304 -0.240725 0.517829
v 0.656854 -0.379426 0.611343
v 0.660675 -0.368069 0.613874
v 0.821143 -0.368836 0.375020
v 0.817322 -0.380193 0.372490
v 0.697523 -0.507569 0.458369
v 0.690693 -0.507536 0.468535
v 0.444879 -0.523454 -1.031207
v 0.414705 -0.523454 -1.043705
v 0.419987 -0.493854 -1.056457
v 0.450161 -0.493854 -1.043959
v 0.656853 -0.368209 -0.583051
v 0.662135 -0.338609 -0.595803
v 0.382166 -0.005686 -0.879805
v 0.351993 -0.005686 -0.892304
v -0.046795 -0.338609 -0.889451
v -0.052077 -0.368209 -0.876699
v 0.227892 -0.701132 -0.592697
v 0.258065 -0.701132 -0.580198
v 0.448433 0.838169 0.239911
v 0.462628 0.823881 0.260184
v 0.391237 0.713169 0.544266
v 0.367828 0.713169 0.560657
v 0.307146 1.029927 0.473995
v 0.321341 1.015638 0.494268
v 0.344751 1.015638 0.477876
v 0.330555 1.029927 0.457603
v 0.076461 0.823881 0.530581
v 0.062266 0.838169 0.510308
v 0.133657 0.948881 0.226227
v 0.157066 0.948881 0.209835
v -0.666766 -0.712712 0.037330
v -0.704949 -0.673540 0.053892
v -0.441253 -0.848109 0.211974
v -0.463356 -0.847371 0.159271
v -0.533695 -0.679263 0.462244
v -0.495512 -0.718434 0.445681
v -0.759208 -0.543865 0.287599
v -0.737105 -0.544604 0.340302
v -0.692682 -0.856352 0.317303
v -0.730866 -0.817181 0.333865
v -0.752968 -0.816442 0.281162
v -0.714785 -0.855613 0.264600
v 0.008165 -0.008165 -1.158670
v -0.008165 -0.008165 -1.158670
v -0.008165 0.008165 -1.158670
v 0.008165 0.008165 -1.158670
v 0.241835 -0.008165 -0.925000
v 0.241835 0.008165 -0.925000
v 0.008165 0.241835 -0.925000
v -0.008165 0.241835 -0.925000
v -0.241835 0.008165 -0.925000
v -0.241835 -0.008165 -0.925000
v -0.008165 -0.241835 -0.925000
v 0.008165 -0.241835 -0.925000
vt 0.987481 0.893279
vt 0.832106 0.893312
vt 0.909616 0.814381
vt 0.909761 0.805127
vt 0.831897 0.726229
vt 0.987271 0.726197
vt 0.992946 0.887630
vt 0.914488 0.809827
vt 0.992946 0.731635
vt 0.536360 0.000227
vt 0.277995 0.263328
vt 0.018448 0.000337
vt 0.555277 0.018354
vt 0.555277 0.538339
vt 0.293753 0.278995
vt 0.537060 0.557170
vt 0.019145 0.557279
vt 0.277512 0.294177
vt 0.261753 0.278509
vt 0.000227 0.539153
vt 0.000231 0.019167
vt 0.555732 0.718555
vt 0.555734 0.453841
vt 0.688458 0.585924
vt 0.701358 0.586139
vt 0.834081 0.453511
vt 0.834081 0.718221
vt 0.563239 0.725742
vt 0.694802 0.592249
vt 0.826857 0.725692
vt 0.695015 0.579814
vt 0.826575 0.446323
vt 0.562958 0.446370
vt 0.904889 0.809681
vt 0.826432 0.731878
vt 0.826431 0.887874
vt 0.555732 0.431367
vt 0.555733 0.015377
vt 0.764953 0.222852
vt 0.570310 0.000316
vt 0.984639 0.000227
vt 0.777946 0.210708
vt 0.570866 0.445869
vt 0.777560 0.235386
vt 0.985196 0.445779
vt 0.790553 0.223242
vt 0.999773 0.430717
vt 0.999773 0.014728
vt 0.000227 0.829963
vt 0.000229 0.565252
vt 0.132952 0.697334
vt 0.278576 0.829633
vt 0.145852 0.697549
vt 0.278576 0.564922
vt 0.271352 0.837105
vt 0.007734 0.837151
vt 0.139295 0.703660
vt 0.292478 0.834482
vt 0.416841 0.706733
vt 0.541918 0.834405
vt 0.279030 0.571191
vt 0.405949 0.695980
vt 0.279030 0.821560
vt 0.541461 0.557734
vt 0.417098 0.685482
vt 0.292021 0.557810
vt 0.427990 0.696236
vt 0.554909 0.821024
vt 0.554909 0.570656
vt 0.711687 0.861379
vt 0.825976 0.753885
vt 0.825976 0.968835
vt 0.690704 0.841448
vt 0.583557 0.726340
vt 0.797911 0.726197
vt 0.670021 0.861713
vt 0.555732 0.969207
vt 0.555732 0.754257
vt 0.691004 0.881644
vt 0.583798 0.996895
vt 0.798151 0.996751
vt 0.139509 0.691224
vt 0.271069 0.557734
vt 0.007453 0.557780
vn 0.4485 -0.8936 0.0128
vn 0.8349 -0.4828 -0.2641
vn 0.7574 -0.6453 0.0994
vn 0.5896 -0.0100 0.8076
vn 0.6070 0.3801 0.6979
vn 0.2206 -0.0306 0.9749
vn 0.1788 -0.8924 0.4143
vn 0.3764 -0.6435 0.6665
vn 0.0697 -0.4792 0.8749
vn -0.9703 0.0000 -0.2418
vn -0.8607 0.3776 -0.3416
vn -0.6561 0.3141 -0.6861
vn -0.9703 0.0000 0.2418
vn -0.6561 0.3141 0.6861
vn -0.8607 0.3776 0.3416
vn -0.3141 0.6561 0.6861
vn 0.0000 0.9703 0.2418
vn -0.3776 0.8607 0.3416
vn -0.3776 0.8607 -0.3416
vn 0.0000 0.9703 -0.2418
vn -0.3141 0.6561 -0.6861
vn 0.7267 -0.6861 0.0328
vn 0.8932 -0.2418 -0.3791
vn 0.9398 -0.3416 0.0113
vn 0.6839 0.3416 0.6447
vn 0.5455 0.6861 0.4812
vn 0.3791 0.2418 0.8932
vn 0.5455 -0.6861 0.4812
vn 0.6839 -0.3416 0.6447
vn 0.3791 -0.2418 0.8932
vn 0.9398 0.3416 0.0113
vn 0.7267 0.6861 0.0328
vn 0.8932 0.2418 -0.3791
vn 0.9705 -0.0118 0.2405
vn 0.8767 0.3789 0.2964
vn 0.9858 -0.0343 -0.1642
vn -0.0964 -0.9118 -0.3992
vn -0.4350 -0.5091 -0.7426
vn -0.0671 -0.6796 -0.7305
vn -0.3568 -0.0708 -0.9315
vn 0.1255 0.3319 -0.9349
vn 0.0433 -0.0604 -0.9972
vn 0.3504 -0.9118 -0.2141
vn 0.5640 -0.6796 -0.4690
vn 0.8327 -0.5091 -0.2175
vn 0.6745 -0.0604 -0.7358
vn 0.9109 -0.0708 -0.4064
vn 0.5723 0.3319 -0.7498
vn -0.6861 0.2418 -0.6861
vn -0.2418 0.6861 -0.6861
vn -0.3416 0.3416 -0.8756
vn 0.2418 -0.6861 -0.6861
vn 0.3416 -0.3416 -0.8756
vn 0.6861 -0.2418 -0.6861
vn -0.2418 -0.6861 -0.6861
vn -0.6861 -0.2418 -0.6861
vn -0.3416 -0.3416 -0.8756
vn 0.0540 0.9373 -0.3444
vn 0.3612 0.9290 -0.0796
vn 0.6387 0.7151 -0.2841
vn -0.4854 0.7151 0.5030
vn -0.1984 0.9290 0.3122
vn -0.3421 0.9373 -0.0670
vn 0.3395 0.2511 0.9065
vn 0.1410 0.5875 0.7968
vn -0.2451 0.4733 0.8461
vn 0.7006 0.5875 0.4050
vn 0.8789 0.4733 0.0590
vn 0.7357 0.2511 0.6290
vn -0.9169 -0.3990 0.0085
vn -0.9881 -0.0262 0.1517
vn -0.8631 -0.3249 -0.3867
vn -0.6527 -0.4078 0.6384
vn -0.3324 -0.3427 0.8787
vn -0.8010 -0.0324 0.5977
vn -0.1963 -0.8760 0.4405
vn 0.1157 -0.9729 0.2001
vn -0.0093 -0.6742 0.7385
vn -0.4605 -0.8672 -0.1895
vn -0.0713 -0.9666 -0.2459
vn -0.5399 -0.6564 -0.5268
vn 0.3416 0.3416 -0.8756
vn 0.6861 0.2418 -0.6861
vn 0.2418 0.6861 -0.6861
usemtl LongshotGeodeCrystal
s 1
f 35/1/1 34/2/2 28/3/3
f 26/4/4 29/5/5 32/6/6
f 36/7/7 27/8/8 31/9/9
f 12/10/10 10/11/11 5/12/12
f 11/13/13 4/14/14 7/15/15
f 3/16/16 2/17/17 8/18/18
f 7/15/15 8/18/18 9/19/19 10/11/11
f 10/11/11 12/10/10 11/13/13 7/15/15
f 1/20/20 9/19/19 8/18/18 2/17/17
f 9/19/19 6/21/21 5/12/12 10/11/11
f 3/16/16 8/18/18 7/15/15 4/14/14
f 9/19/19 1/20/20 6/21/21
f 23/22/22 22/23/23 16/24/24
f 14/25/25 17/26/26 20/27/27
f 24/28/28 15/29/29 19/30/30
f 13/31/31 14/25/25 15/29/29 16/24/24
f 17/26/26 14/25/25 13/31/31 18/32/32
f 15/29/29 24/28/28 23/22/22 16/24/24
f 14/25/25 20/27/27 19/30/30 15/29/29
f 21/33/33 13/31/31 16/24/24 22/23/23
f 21/33/33 18/32/32 13/31/31
f 25/34/34 26/4/4 27/8/8 28/3/3
f 29/5/5 26/4/4 25/34/34 30/35/35
f 27/8/8 36/7/7 35/1/1 28/3/3
f 26/4/4 32/6/6 31/9/9 27/8/8
f 33/36/36 25/34/34 28/3/3 34/2/2
f 33/36/36 30/35/35 25/34/34
f 47/37/37 46/38/38 38/39/39
f 45/40/40 44/41/41 39/42/42
f 48/43/43 37/44/44 41/45/45
f 37/44/44 38/39/39 39/42/42 40/46/46
f 40/46/46 42/47/47 41/45/45 37/44/44
f 43/48/48 40/46/46 39/42/42 44/41/41
f 37/44/44 48/43/43 47/37/37 38/39/39
f 45/40/40 39/42/42 38/39/39 46/38/38
f 40/46/46 43/48/48 42/47/47
f 81/49/49 80/50/50 75/51/51
f 84/52/52 73/53/53 77/54/54
f 83/55/55 82/56/56 74/57/57
f 60/58/58 56/59/59 49/60/60
f 58/61/61 53/62/62 59/63/63
f 52/64/64 54/65/65 57/66/66
f 53/62/62 54/65/65 55/67/67 56/59/59
f 53/62/62 58/61/61 57/66/66 54/65/65
f 55/67/67 50/68/68 49/60/60 56/59/59
f 54/65/65 52/64/64 51/69/69 55/67/67
f 56/59/59 60/58/58 59/63/63 53/62/62
f 50/68/68 55/67/67 51/69/69
f 71/70/70 67/71/71 62/72/72
f 70/73/73 65/74/74 68/75/75
f 69/76/76 63/77/77 66/78/78
f 69/76/76 70/73/73 71/70/70 72/79/79
f 63/77/77 69/76/76 72/79/79 64/80/80
f 67/71/71 71/70/70 70/73/73 68/75/75
f 61/81/81 72/79/79 71/70/70 62/72/72
f 65/74/74 70/73/73 69/76/76 66/78/78
f 72/79/79 61/81/81 64/80/80
f 73/53/53 74/57/57 75/51/51 76/82/82
f 76/82/82 78/83/83 77/54/54 73/53/53
f 79/84/84 76/82/82 75/51/51 80/50/50
f 81/49/49 75/51/51 74/57/57 82/56/56
f 73/53/53 84/52/52 83/55/55 74/57/57
f 76/82/82 79/84/84 78/83/83
