# Blender v2.92.0 OBJ File: 'Rough_Idea_att10_-_Slime_Details.blend'
# www.blender.org
mtllib NoxiousSlimeEyesMesh.mtl
o NoxiousSlimeEyesMesh_Noxious_Slimes_Eyes
v 0.209609 0.187500 -0.708860
v -0.209609 0.187500 -0.708860
v 0.000000 0.187500 -0.736656
v 0.193733 0.375000 -0.711809
v -0.193733 0.375000 -0.711809
v 0.000000 0.375000 -0.737500
v 0.621849 -0.606134 0.270126
v 0.688425 -0.606134 0.183448
v 0.718694 -0.606134 -0.153514
v 0.668180 -0.606134 -0.250436
v 0.612510 -0.517695 0.252529
v 0.674136 -0.517695 0.172297
v 0.702686 -0.517695 -0.145013
v 0.655928 -0.517695 -0.234728
v 0.736432 -0.606134 -0.039187
v 0.725746 -0.606134 0.073938
v 0.719105 -0.517695 -0.039187
v 0.708682 -0.517695 0.070930
v -0.121164 -0.247500 0.715372
v 0.146078 -0.247500 0.684405
v 0.039343 -0.247500 0.726579
v 0.213007 -0.247500 0.613483
v -0.421806 -0.375000 0.577477
v -0.290707 -0.375000 0.662129
v -0.366709 -0.214209 0.594065
v -0.268241 -0.208032 0.663156
v 0.262504 -0.375000 0.602359
v 0.055387 -0.375000 0.730990
v -0.125084 -0.375000 0.718346
v 0.182754 -0.375000 0.682662
v -0.506040 0.187500 -0.511239
v -0.387306 0.187500 -0.629704
v -0.209609 0.187500 -0.708860
v -0.519682 0.000000 -0.506006
v -0.397747 0.000000 -0.627665
v -0.215259 0.000000 -0.708955
v -0.571302 0.391936 0.189934
v -0.607630 0.373889 0.303671
v -0.604087 0.324639 0.410520
v -0.562869 0.245584 0.462428
v -0.511758 0.159027 0.493622
v -0.440508 0.068301 0.520962
v -0.586594 0.260808 0.182268
v -0.614558 0.247482 0.273770
v -0.614109 0.209532 0.362606
v -0.570938 0.152735 0.404418
v -0.515523 0.097569 0.434966
v -0.449499 0.018742 0.461046
vt 0.965966 0.756638
vt 0.857482 0.769659
vt 0.868972 0.865866
vt 0.969239 0.853832
vt 0.748983 0.782552
vt 0.768690 0.877782
vt 0.762567 0.893353
vt 0.860946 0.885214
vt 0.867795 0.966464
vt 0.776731 0.973998
vt 0.959286 0.882657
vt 0.857874 0.884039
vt 0.864162 0.962928
vt 0.958033 0.961649
vt 0.965424 0.883314
vt 0.964504 0.964706
vt 0.762354 0.891503
vt 0.775745 0.969837
vt 0.662116 0.997571
vt 0.594264 0.992982
vt 0.618779 0.903759
vt 0.697553 0.908678
vt 0.514229 0.992739
vt 0.523776 0.903578
vt 0.586506 0.908913
vt 0.600203 0.999290
vt 0.534858 0.998397
vt 0.501886 0.911804
vt 0.681381 0.906841
vt 0.684386 0.976005
vt 0.962282 0.879551
vt 0.854080 0.868597
vt 0.869977 0.767603
vt 0.975339 0.778270
vt 0.760868 0.858388
vt 0.779212 0.757662
vt 0.596611 0.776307
vt 0.508164 0.785784
vt 0.530891 0.880508
vt 0.601543 0.872003
vt 0.682394 0.788932
vt 0.672195 0.880508
vt 0.614728 0.795679
vt 0.691962 0.782594
vt 0.663215 0.859075
vt 0.600757 0.857411
vt 0.527530 0.809181
vt 0.522414 0.867213
vn 0.1314 -0.0045 -0.9913
vn 0.0000 -0.0045 -1.0000
vn -0.1314 -0.0045 -0.9913
vn 0.7769 0.2008 0.5967
vn 0.8625 0.1981 0.4657
vn 0.8657 0.1978 0.4596
vn 0.9702 0.1901 -0.1505
vn 0.9302 0.1981 -0.3089
vn 0.9324 0.1978 -0.3023
vn 0.9293 0.1901 0.3167
vn 0.8687 0.2008 -0.4527
vn 0.7028 0.2031 0.6817
vn 0.5185 0.1382 0.8438
vn 0.5710 0.1564 0.8059
vn 0.3593 0.0840 0.9294
vn -0.4528 0.0638 0.8893
vn -0.4418 0.0613 0.8950
vn -0.5559 0.0871 0.8266
vn -0.3234 0.0352 0.9456
vn -0.4069 0.0127 -0.9134
vn -0.5708 0.0228 -0.8208
vn -0.5609 0.0222 -0.8276
vn -0.7059 0.0316 -0.7075
vn -0.9876 0.0921 -0.1270
vn -0.9522 0.1229 -0.2795
vn -0.9894 0.0894 -0.1139
vn -0.9974 0.0555 0.0450
vn -0.7616 -0.3844 0.5218
vn -0.7704 -0.3458 0.5355
vn -0.7563 -0.4046 0.5141
vn -0.7442 -0.4458 0.4974
usemtl Noxious_Slime.001
s 1
f 1/1/1 3/2/2 6/3/2 4/4/1
f 3/2/2 2/5/3 5/6/3 6/3/2
f 7/7/4 8/8/5 12/9/6 11/10/4
f 15/11/7 9/12/8 13/13/9 17/14/7
f 8/8/5 16/15/10 18/16/10 12/9/6
f 9/12/8 10/17/11 14/18/11 13/13/9
f 22/19/12 20/20/13 30/21/14 27/22/12
f 20/20/13 21/23/15 28/24/15 30/21/14
f 24/25/16 26/26/17 25/27/18 23/28/18
f 26/26/17 24/25/16 29/29/19 19/30/19
f 36/31/20 35/32/21 32/33/22 33/34/20
f 35/32/21 34/35/23 31/36/23 32/33/22
f 38/37/24 37/38/25 43/39/25 44/40/26
f 39/41/27 38/37/24 44/40/26 45/42/27
f 41/43/28 40/44/29 46/45/29 47/46/30
f 42/47/31 41/43/28 47/46/30 48/48/31
