# Blender v2.92.0 OBJ File: 'Rough_Idea_att18_-_Item_Model.blend'
# www.blender.org
mtllib CollectorsVisionDisplayConeMesh.mtl
o CollectorsVisionDisplayConeMesh_Collector's_Vision_Cone_Display
v 0.024737 0.094720 3.991480
v 0.045707 0.080707 3.991480
v 0.059720 0.059737 3.991480
v 0.064640 0.035000 3.991480
v 0.059720 0.010263 3.991480
v 0.045707 -0.010707 3.991480
v 0.024737 -0.024720 3.991480
v 0.000000 -0.029640 3.991480
v -0.024737 -0.024719 3.991480
v -0.045707 -0.010707 3.991480
v -0.059719 0.010263 3.991480
v -0.064640 0.035000 3.991480
v -0.059719 0.059737 3.991480
v -0.045707 0.080707 3.991480
v -0.024737 0.094720 3.991480
v 0.000000 0.099640 3.991480
v 0.024761 0.094779 0.991481
v 0.045753 0.080753 0.991481
v 0.059779 0.059761 0.991481
v 0.064705 0.035000 0.991481
v 0.059779 0.010239 0.991481
v 0.045753 -0.010753 0.991481
v 0.024761 -0.024779 0.991481
v 0.000000 -0.029705 0.991481
v -0.024761 -0.024779 0.991481
v -0.045753 -0.010753 0.991481
v -0.059779 0.010239 0.991481
v -0.064705 0.035000 0.991481
v -0.059779 0.059762 0.991481
v -0.045753 0.080753 0.991481
v -0.024761 0.094779 0.991481
v 0.000000 0.099705 0.991481
vt 0.943558 0.992527
vt 0.949616 0.992527
vt 0.949616 0.007655
vt 0.943558 0.007655
vt 0.889035 0.992525
vt 0.895093 0.992526
vt 0.895093 0.007654
vt 0.889035 0.007654
vt 0.937500 0.992527
vt 0.937500 0.007655
vt 0.979907 0.992526
vt 0.985965 0.992526
vt 0.985965 0.007654
vt 0.979907 0.007654
vt 0.925384 0.992527
vt 0.931442 0.992527
vt 0.931442 0.007655
vt 0.925384 0.007655
vt 0.973849 0.992526
vt 0.973849 0.007654
vt 0.919325 0.992527
vt 0.919326 0.007655
vt 0.967791 0.992527
vt 0.967790 0.007654
vt 0.913267 0.992526
vt 0.913268 0.007654
vt 0.961733 0.992527
vt 0.961732 0.007655
vt 0.907209 0.992526
vt 0.907210 0.007654
vt 0.955674 0.992527
vt 0.955674 0.007655
vt 0.901151 0.007654
vt 0.901151 0.992526
vn -0.3827 0.9239 0.0000
vn -0.7071 0.7071 0.0000
vn 0.0000 -1.0000 0.0000
vn 0.3827 -0.9239 0.0000
vn 0.0000 1.0000 0.0000
vn -0.3827 -0.9239 0.0000
vn 0.7071 0.7071 0.0000
vn 0.3827 0.9239 0.0000
vn -0.7071 -0.7071 0.0000
vn 0.9239 0.3827 0.0000
vn -0.9239 -0.3827 0.0000
vn 1.0000 0.0000 0.0000
vn -1.0000 0.0000 0.0000
vn 0.9239 -0.3827 0.0000
vn -0.9239 0.3827 0.0000
vn 0.7071 -0.7071 0.0000
usemtl Collectors_Vision
s 1
f 31/1/1 30/2/2 14/3/2 15/4/1
f 24/5/3 23/6/4 7/7/4 8/8/3
f 32/9/5 31/1/1 15/4/1 16/10/5
f 25/11/6 24/12/3 8/13/3 9/14/6
f 18/15/7 17/16/8 1/17/8 2/18/7
f 1/17/8 17/16/8 32/9/5 16/10/5
f 26/19/9 25/11/6 9/14/6 10/20/9
f 19/21/10 18/15/7 2/18/7 3/22/10
f 27/23/11 26/19/9 10/20/9 11/24/11
f 20/25/12 19/21/10 3/22/10 4/26/12
f 28/27/13 27/23/11 11/24/11 12/28/13
f 21/29/14 20/25/12 4/26/12 5/30/14
f 29/31/15 28/27/13 12/28/13 13/32/15
f 6/33/16 22/34/16 21/29/14 5/30/14
f 14/3/2 30/2/2 29/31/15 13/32/15
f 23/6/4 22/34/16 6/33/16 7/7/4
